<?xml version="1.0" standalone="no"?>
<!DOCTYPE svg PUBLIC "-//W3C//DTD SVG 20010904//EN"
 "http://www.w3.org/TR/2001/REC-SVG-20010904/DTD/svg10.dtd">
<svg version="1.0" xmlns="http://www.w3.org/2000/svg"
 width="300.000000pt" height="300.000000pt" viewBox="0 0 300.000000 300.000000"
 preserveAspectRatio="xMidYMid meet">
<metadata>
Created by potrace 1.14, written by Peter Selinger 2001-2017
</metadata>
<g transform="translate(0.000000,300.000000) scale(0.100000,-0.100000)"
fill="#000000" stroke="none">
<path d="M1367 2464 c-3 -3 -3 -12 0 -20 3 -8 0 -14 -6 -14 -19 0 -12 -38 8
-45 21 -6 75 4 67 13 -3 3 0 12 7 20 10 13 9 15 -7 9 -12 -5 -23 -1 -32 10
-11 16 -10 19 9 25 18 5 17 6 -9 7 -17 1 -33 -2 -37 -5z m33 -54 c0 -5 -4 -10
-9 -10 -6 0 -13 5 -16 10 -3 6 1 10 9 10 9 0 16 -4 16 -10z"/>
<path d="M1560 2425 c0 -37 3 -45 18 -45 20 0 52 29 52 47 0 15 -34 43 -53 43
-13 0 -17 -10 -17 -45z m37 -7 c-3 -8 -6 -5 -6 6 -1 11 2 17 5 13 3 -3 4 -12
1 -19z"/>
<path d="M1660 2453 c-18 -22 -14 -73 6 -73 8 0 14 9 14 20 0 11 5 20 11 20 7
0 9 -10 7 -25 -4 -19 -1 -25 13 -25 13 0 19 7 19 24 0 13 6 27 13 29 10 4 10
6 0 6 -7 1 -13 7 -13 15 0 7 -10 16 -22 20 -32 8 -32 8 -48 -11z m40 -13 c0
-5 -2 -10 -4 -10 -3 0 -8 5 -11 10 -3 6 -1 10 4 10 6 0 11 -4 11 -10z"/>
<path d="M1142 2443 c-6 -2 -10 -8 -7 -12 2 -4 5 -24 7 -44 3 -45 28 -51 28
-7 0 36 17 40 26 5 11 -44 31 -30 25 17 -4 31 -11 44 -25 46 -13 3 -16 0 -11
-10 6 -10 5 -11 -6 0 -14 13 -17 13 -37 5z"/>
<path d="M1786 2410 c-8 -52 -3 -60 38 -60 31 0 34 3 40 35 4 20 4 40 1 45
-12 19 -25 10 -25 -17 0 -16 -4 -35 -10 -43 -8 -13 -10 -13 -14 0 -3 8 -5 28
-3 44 3 46 -19 42 -27 -4z"/>
<path d="M1052 2418 c-29 -29 -7 -78 34 -78 28 0 37 14 29 40 -10 32 -37 26
-29 -6 5 -18 3 -25 -3 -21 -6 4 -13 16 -16 28 -4 15 0 23 14 26 10 3 19 9 19
14 0 13 -34 11 -48 -3z"/>
<path d="M1918 2409 c-35 -20 -19 -79 22 -79 21 0 29 6 32 24 3 16 0 27 -9 30
-21 8 -24 7 -22 -6 1 -7 1 -20 0 -28 -1 -13 -3 -13 -10 -1 -15 24 6 53 32 45
19 -6 20 -5 8 10 -15 18 -29 20 -53 5z"/>
<path d="M984 2403 c-7 -2 -7 -17 0 -48 12 -51 32 -55 28 -5 -3 39 -13 58 -28
53z"/>
<path d="M2005 2387 c-16 -20 -17 -77 -1 -77 7 0 16 9 19 20 8 30 28 24 25 -6
-2 -15 3 -29 10 -31 7 -3 12 3 12 15 0 10 3 22 7 26 14 13 12 44 -2 50 -9 3
-15 0 -15 -9 0 -8 -4 -15 -10 -15 -5 0 -10 9 -10 20 0 22 -19 26 -35 7z"/>
<path d="M893 2378 c-34 -16 -29 -44 8 -52 30 -6 32 -26 3 -26 -8 0 -14 -5
-14 -11 0 -12 37 -3 58 14 19 15 10 29 -29 43 -32 12 -32 13 -11 20 12 3 22
10 22 15 0 11 -9 10 -37 -3z"/>
<path d="M800 2342 c-23 -11 -36 -25 -37 -40 -2 -13 1 -21 7 -17 5 3 12 -5 16
-18 6 -26 33 -27 54 -2 9 11 6 12 -11 8 -19 -5 -21 -3 -17 20 3 15 2 24 -3 22
-4 -3 -10 -1 -14 5 -5 9 7 14 27 12 3 -1 9 5 12 13 7 18 9 18 -34 -3z"/>
<path d="M2150 2340 c0 -5 7 -10 15 -10 19 0 19 -4 0 -41 -15 -28 -13 -49 4
-49 4 0 13 16 20 35 11 31 16 34 39 30 20 -5 15 1 -18 19 -50 28 -60 31 -60
16z"/>
<path d="M692 2292 c-10 -7 -9 -18 7 -51 l19 -43 21 21 c29 29 27 59 -5 71
-30 12 -26 12 -42 2z"/>
<path d="M2256 2275 c-11 -8 -17 -15 -13 -15 4 0 3 -9 -3 -21 -9 -17 -8 -23 7
-35 10 -7 25 -13 33 -13 12 0 11 2 -2 10 -24 14 -22 28 5 39 12 5 16 9 9 9 -7
1 -10 6 -7 11 4 7 13 6 26 -1 12 -6 23 -8 26 -6 4 5 -50 38 -59 37 -2 0 -12
-7 -22 -15z"/>
<path d="M2352 2204 c-24 -37 -21 -64 4 -43 11 9 14 7 14 -9 0 -12 5 -24 10
-27 6 -4 10 5 10 21 0 15 8 33 17 39 17 12 17 14 -1 34 -11 12 -22 21 -25 21
-3 0 -16 -16 -29 -36z"/>
<path d="M483 2155 c-14 -10 -21 -25 -21 -45 1 -16 5 -27 9 -24 5 3 14 -4 21
-15 9 -15 16 -17 25 -9 10 8 7 17 -13 44 -15 19 -21 34 -15 34 6 0 11 -3 11
-7 0 -5 12 -16 25 -26 31 -23 53 -13 30 13 -10 11 -14 24 -9 31 5 8 2 11 -8 6
-9 -3 -20 -1 -25 4 -5 5 -17 3 -30 -6z"/>
<path d="M2447 2163 c-4 -4 -4 -22 -1 -40 5 -28 4 -32 -10 -27 -9 3 -16 10
-16 15 0 5 -6 9 -12 9 -7 0 -1 -12 14 -26 37 -37 59 -27 51 23 -5 31 -3 36 8
26 22 -21 34 -15 14 7 -18 20 -36 25 -48 13z"/>
<path d="M600 2140 c0 -5 5 -10 11 -10 5 0 7 5 4 10 -3 6 -8 10 -11 10 -2 0
-4 -4 -4 -10z"/>
<path d="M1400 2105 c-8 -10 -17 -12 -24 -6 -7 6 -17 6 -26 1 -9 -6 -17 -5
-22 3 -5 8 -16 2 -34 -20 -29 -37 -49 -43 -39 -13 6 20 -13 29 -29 13 -7 -7
-35 -12 -79 -14 -11 0 -20 -11 -24 -30 -7 -37 -15 -42 -47 -27 -23 10 -29 8
-49 -11 -13 -12 -29 -44 -35 -71 -14 -62 -48 -115 -87 -136 -69 -37 -120 9
-119 106 2 77 28 125 70 125 24 0 29 -5 32 -25 1 -14 -2 -32 -8 -40 -9 -13
-11 -13 -20 0 -7 11 -12 12 -21 3 -14 -14 -3 -33 20 -33 43 0 72 78 41 114
-18 23 -44 20 -80 -10 -103 -87 -64 -304 50 -279 59 13 125 90 144 167 4 19
11 25 23 22 17 -5 51 19 109 73 13 12 26 17 29 12 4 -5 11 -6 18 -2 6 3 27 8
46 9 59 5 78 9 95 23 11 9 16 10 16 2 0 -15 17 -14 32 3 10 10 17 11 31 2 13
-8 24 -7 47 6 27 15 30 15 30 1 0 -12 8 -14 32 -11 18 3 40 1 49 -5 12 -7 31
-5 67 6 58 19 62 20 61 10 -5 -29 3 -35 40 -31 29 2 42 -1 50 -14 7 -11 24
-18 44 -18 17 0 41 -7 51 -15 11 -8 30 -15 42 -15 12 0 24 -7 28 -15 3 -8 12
-15 21 -15 8 0 24 -9 35 -20 11 -11 30 -20 43 -20 13 0 26 -9 32 -22 6 -13 22
-29 36 -35 17 -8 29 -24 32 -43 7 -31 54 -64 85 -58 12 2 4 10 -22 23 -48 24
-59 45 -20 37 21 -4 25 -1 22 14 -2 12 -20 23 -57 34 -60 17 -75 35 -39 49 16
6 30 4 45 -7 14 -8 23 -10 23 -4 0 6 -4 13 -10 17 -5 3 -7 12 -3 20 3 10 -1
15 -15 15 -11 0 -27 3 -36 6 -11 4 -16 1 -16 -10 0 -12 -10 -16 -38 -16 -47 0
-57 8 -37 30 25 27 -6 45 -78 45 -42 0 -62 4 -65 14 -3 10 2 12 22 7 19 -5 26
-3 26 8 0 22 -21 25 -59 10 -53 -22 -73 -19 -65 11 7 29 8 29 -45 10 -42 -14
-45 -13 -42 18 2 12 -5 17 -21 17 -13 0 -29 5 -35 11 -7 7 -19 3 -39 -16 -29
-27 -59 -30 -59 -6 0 21 -20 24 -35 6 -7 -8 -17 -15 -23 -15 -7 0 -7 4 1 12
32 32 -16 40 -50 8 -12 -11 -26 -20 -31 -20 -5 0 -7 9 -4 20 6 24 -15 27 -33
5z m615 -125 c3 -6 -4 -10 -17 -10 -18 0 -20 2 -8 10 19 12 18 12 25 0z m-960
-10 c3 -5 1 -10 -4 -10 -6 0 -11 5 -11 10 0 6 2 10 4 10 3 0 8 -4 11 -10z"/>
<path d="M1835 2110 c4 -6 11 -8 16 -5 14 9 11 15 -7 15 -8 0 -12 -5 -9 -10z"/>
<path d="M394 2077 c-44 -49 -48 -57 -30 -57 10 0 14 5 11 10 -12 20 12 9 35
-15 16 -17 27 -22 34 -15 7 7 1 19 -17 38 -21 22 -24 31 -15 40 6 6 9 14 7 17
-3 3 -14 -5 -25 -18z"/>
<path d="M2578 2001 l-38 -28 26 -24 c21 -20 24 -20 18 -5 -5 14 0 25 22 42
44 36 18 49 -28 15z"/>
<path d="M290 1950 c-12 -22 -3 -73 12 -64 5 3 16 0 24 -7 10 -8 18 -9 25 -2
7 7 4 15 -11 26 -14 10 -18 17 -10 22 6 4 17 1 25 -5 8 -6 19 -9 26 -5 15 10
-34 55 -60 55 -11 0 -25 -9 -31 -20z m30 -10 c0 -5 -5 -10 -11 -10 -5 0 -7 5
-4 10 3 6 8 10 11 10 2 0 4 -4 4 -10z"/>
<path d="M2637 1926 l-38 -23 21 -24 c13 -16 18 -18 14 -7 -4 13 3 22 29 34
22 11 33 22 30 30 -7 18 -10 17 -56 -10z"/>
<path d="M240 1840 l-22 -22 43 -19 c48 -22 61 -14 50 30 -9 34 -43 39 -71 11z
m45 -10 c3 -5 1 -10 -4 -10 -6 0 -11 5 -11 10 0 6 2 10 4 10 3 0 8 -4 11 -10z"/>
<path d="M2670 1820 c-14 -25 -4 -60 16 -60 11 0 12 4 4 20 -8 16 -6 21 11 31
22 11 38 0 39 -26 0 -5 4 -3 9 4 15 24 -6 51 -39 51 -19 0 -33 -7 -40 -20z"/>
<path d="M75 1572 l-30 -57 30 -56 c29 -55 30 -56 53 -41 21 14 26 14 51 -1
25 -15 28 -15 40 4 7 12 19 18 26 15 12 -4 13 -2 3 13 -9 15 -8 24 4 43 14 21
14 27 2 43 -15 20 -19 39 -6 31 4 -2 8 4 8 14 0 10 -6 16 -12 13 -7 -2 -18 5
-26 16 -14 19 -16 19 -37 4 -21 -14 -26 -14 -50 0 l-26 15 -30 -56z m103 -3
c31 -23 61 -45 65 -49 7 -6 -23 -81 -39 -99 -2 -2 -23 9 -46 24 -25 16 -37 21
-29 11 13 -15 13 -19 0 -27 -21 -13 -24 -12 -42 26 -16 33 -13 44 9 28 5 -5
-1 1 -14 13 l-23 21 22 46 c13 26 27 47 31 47 5 0 35 -19 66 -41z m37 21 c4
-11 10 -18 14 -16 4 3 7 -4 7 -15 0 -24 -4 -24 -40 5 -16 13 -25 29 -22 35 11
18 34 13 41 -9z"/>
<path d="M2852 1612 c-20 -13 -26 -13 -48 -1 -23 12 -28 11 -40 -5 -8 -12 -20
-16 -31 -12 -16 5 -17 5 -2 -7 15 -11 15 -15 2 -41 -12 -22 -13 -34 -4 -53 13
-28 14 -36 3 -29 -4 2 -8 -3 -8 -12 0 -11 8 -17 21 -17 22 0 22 0 3 42 -18 41
-18 42 4 87 12 25 26 46 31 46 14 0 137 -91 137 -101 0 -6 -7 -23 -15 -39 -9
-17 -13 -30 -10 -30 2 0 13 17 24 38 l19 38 -29 54 c-16 29 -30 54 -32 56 -1
1 -12 -5 -25 -14z m48 -42 l21 -41 -41 27 c-42 28 -48 39 -27 47 23 10 27 7
47 -33z"/>
<path d="M631 1604 c0 -11 3 -14 6 -6 3 7 2 16 -1 19 -3 4 -6 -2 -5 -13z"/>
<path d="M516 1567 c3 -10 9 -15 12 -12 3 3 0 11 -7 18 -10 9 -11 8 -5 -6z"/>
<path d="M306 1541 c-4 -6 0 -14 8 -17 12 -5 13 -10 5 -25 -5 -10 -7 -19 -5
-19 3 0 10 8 15 19 12 22 -11 63 -23 42z"/>
<path d="M1834 1525 c-9 -22 1 -29 15 -11 8 10 9 16 1 21 -5 3 -13 -1 -16 -10z"/>
<path d="M636 1515 c-3 -8 -1 -15 4 -15 6 0 10 7 10 15 0 8 -2 15 -4 15 -2 0
-6 -7 -10 -15z"/>
<path d="M730 1515 c-7 -8 -9 -15 -6 -15 4 0 14 7 22 15 9 8 11 15 6 15 -5 0
-15 -7 -22 -15z"/>
<path d="M836 1517 c3 -10 9 -15 12 -12 3 3 0 11 -7 18 -10 9 -11 8 -5 -6z"/>
<path d="M1205 1519 c-4 -6 -5 -12 -2 -15 2 -3 7 2 10 11 7 17 1 20 -8 4z"/>
<path d="M1366 1517 c3 -10 9 -15 12 -12 3 3 0 11 -7 18 -10 9 -11 8 -5 -6z"/>
<path d="M1426 1515 c-3 -8 -1 -15 4 -15 6 0 10 7 10 15 0 8 -2 15 -4 15 -2 0
-6 -7 -10 -15z"/>
<path d="M1696 1521 c-4 -7 -5 -15 -2 -18 9 -9 19 4 14 18 -4 11 -6 11 -12 0z"/>
<path d="M2135 1519 c-4 -6 -5 -12 -2 -15 2 -3 7 2 10 11 7 17 1 20 -8 4z"/>
<path d="M2296 1517 c3 -10 9 -15 12 -12 3 3 0 11 -7 18 -10 9 -11 8 -5 -6z"/>
<path d="M2356 1515 c-3 -8 -1 -15 4 -15 6 0 10 7 10 15 0 8 -2 15 -4 15 -2 0
-6 -7 -10 -15z"/>
<path d="M2645 1521 c-3 -6 1 -14 9 -17 9 -3 13 -11 9 -17 -3 -6 -1 -7 6 -3 9
6 9 12 -1 24 -7 10 -13 18 -14 20 -1 2 -5 -2 -9 -7z"/>
<path d="M681 1504 c0 -11 3 -14 6 -6 3 7 2 16 -1 19 -3 4 -6 -2 -5 -13z"/>
<path d="M1020 1510 c0 -5 5 -10 11 -10 5 0 7 5 4 10 -3 6 -8 10 -11 10 -2 0
-4 -4 -4 -10z"/>
<path d="M1050 1509 c0 -5 5 -7 10 -4 6 3 10 8 10 11 0 2 -4 4 -10 4 -5 0 -10
-5 -10 -11z"/>
<path d="M1105 1509 c-4 -6 -5 -12 -2 -15 2 -3 7 2 10 11 7 17 1 20 -8 4z"/>
<path d="M1471 1504 c0 -11 3 -14 6 -6 3 7 2 16 -1 19 -3 4 -6 -2 -5 -13z"/>
<path d="M1741 1504 c0 -11 3 -14 6 -6 3 7 2 16 -1 19 -3 4 -6 -2 -5 -13z"/>
<path d="M1791 1504 c0 -11 3 -14 6 -6 3 7 2 16 -1 19 -3 4 -6 -2 -5 -13z"/>
<path d="M2401 1504 c0 -11 3 -14 6 -6 3 7 2 16 -1 19 -3 4 -6 -2 -5 -13z"/>
<path d="M980 1499 c0 -5 5 -7 10 -4 6 3 10 8 10 11 0 2 -4 4 -10 4 -5 0 -10
-5 -10 -11z"/>
<path d="M2775 1476 c17 -14 34 -26 39 -26 5 0 3 -7 -4 -15 -7 -8 -19 -15 -28
-15 -8 0 -12 -3 -9 -7 4 -3 18 0 32 7 20 11 28 10 49 -3 21 -14 25 -15 30 -1
3 9 2 12 -5 9 -6 -4 -38 12 -72 35 -34 23 -48 30 -32 16z"/>
<path d="M1025 1350 c3 -5 8 -10 11 -10 2 0 4 5 4 10 0 6 -5 10 -11 10 -5 0
-7 -4 -4 -10z"/>
<path d="M2045 1350 c3 -5 8 -10 11 -10 2 0 4 5 4 10 0 6 -5 10 -11 10 -5 0
-7 -4 -4 -10z"/>
<path d="M2096 1334 c-10 -25 1 -29 14 -5 6 12 7 21 1 21 -5 0 -12 -7 -15 -16z"/>
<path d="M2034 1332 c4 -7 3 -12 -2 -12 -5 0 -12 -9 -15 -20 -7 -26 -3 -25 17
4 11 18 13 27 4 32 -7 4 -8 3 -4 -4z"/>
<path d="M2674 1295 c5 -18 2 -25 -9 -25 -8 0 -15 -4 -15 -9 0 -15 15 -20 30
-11 8 5 22 4 33 -2 28 -14 36 2 10 19 -13 9 -23 21 -23 28 0 7 -7 16 -16 19
-13 5 -15 1 -10 -19z"/>
<path d="M1327 1303 c-4 -3 -7 -11 -7 -17 0 -6 5 -5 12 2 6 6 9 14 7 17 -3 3
-9 2 -12 -2z"/>
<path d="M1586 1297 c3 -10 9 -15 12 -12 3 3 0 11 -7 18 -10 9 -11 8 -5 -6z"/>
<path d="M295 1290 c-4 -6 -11 -8 -16 -5 -5 4 -9 2 -9 -4 0 -5 -9 -12 -20 -16
-16 -5 -18 -10 -8 -31 13 -28 26 -32 24 -6 0 10 6 16 17 16 9 -1 17 2 17 7 0
5 5 9 10 9 6 0 10 -7 10 -15 0 -8 5 -15 10 -15 13 0 13 6 -5 40 -17 33 -21 35
-30 20z"/>
<path d="M1061 1284 c0 -11 3 -14 6 -6 3 7 2 16 -1 19 -3 4 -6 -2 -5 -13z"/>
<path d="M1830 1290 c0 -5 5 -10 11 -10 5 0 7 5 4 10 -3 6 -8 10 -11 10 -2 0
-4 -4 -4 -10z"/>
<path d="M1860 1289 c0 -5 5 -7 10 -4 6 3 10 8 10 11 0 2 -4 4 -10 4 -5 0 -10
-5 -10 -11z"/>
<path d="M1272 1270 c0 -14 2 -19 5 -12 2 6 2 18 0 25 -3 6 -5 1 -5 -13z"/>
<path d="M1790 1279 c0 -5 5 -7 10 -4 6 3 10 8 10 11 0 2 -4 4 -10 4 -5 0 -10
-5 -10 -11z"/>
<path d="M2606 1200 c-14 -22 -22 -40 -17 -40 5 0 11 6 13 12 3 9 12 8 32 -5
15 -10 35 -16 44 -12 12 5 9 10 -17 26 -24 15 -31 24 -26 39 10 31 0 24 -29
-20z"/>
<path d="M317 1203 c-4 -3 -7 -17 -7 -30 0 -24 -15 -32 -23 -10 -2 6 -7 10
-10 7 -3 -3 2 -16 12 -29 25 -33 51 -22 51 21 1 31 1 32 15 14 20 -27 28 -15
9 12 -15 22 -35 28 -47 15z"/>
<path d="M390 1130 c0 -5 5 -10 12 -10 6 0 -1 -13 -16 -29 -39 -40 -24 -62 16
-24 21 19 32 24 35 16 3 -7 9 -13 15 -13 5 0 -3 15 -19 34 -29 35 -43 44 -43
26z"/>
<path d="M2555 1120 c-3 -5 -3 -10 2 -11 4 0 -3 -5 -16 -10 l-25 -10 31 -31
c37 -37 67 -30 32 8 -18 19 -19 24 -7 24 9 0 21 -7 28 -15 9 -11 16 -13 24 -5
7 7 2 18 -19 35 -34 27 -41 29 -50 15z"/>
<path d="M2473 1052 c-16 -12 -21 -23 -17 -39 4 -13 10 -20 15 -17 5 2 14 -4
21 -15 11 -19 14 -19 30 -4 21 19 25 41 4 24 -10 -9 -16 -8 -26 4 -7 8 -9 15
-4 15 5 0 3 4 -5 9 -12 8 -12 12 -2 25 17 21 12 20 -16 -2z"/>
<path d="M511 969 c-16 -22 -20 -34 -12 -42 7 -7 12 -6 17 6 3 9 17 17 30 17
26 0 32 18 12 38 -17 17 -22 15 -47 -19z"/>
<path d="M2417 993 c-4 -3 1 -15 10 -25 13 -15 14 -21 4 -31 -10 -9 -16 -7
-31 11 -28 34 -34 7 -7 -33 18 -26 26 -32 35 -23 7 7 12 18 12 25 0 7 6 10 14
7 25 -10 27 15 5 46 -23 31 -31 35 -42 23z"/>
<path d="M585 944 c-10 -8 -16 -14 -12 -14 4 0 3 -9 -4 -21 -7 -14 -8 -24 -1
-31 7 -7 14 -3 22 11 6 12 15 19 21 16 5 -4 5 -14 -2 -26 -6 -12 -8 -23 -5
-26 10 -10 51 32 53 55 3 23 -11 30 -22 12 -9 -15 -25 -2 -19 14 8 21 -9 26
-31 10z"/>
<path d="M2307 921 c-38 -25 -46 -35 -20 -27 18 6 25 1 38 -23 10 -19 20 -28
30 -25 12 5 10 11 -8 36 -16 22 -18 32 -9 35 13 5 17 23 5 22 -5 0 -20 -8 -36
-18z"/>
<path d="M677 865 c-20 -41 -20 -45 -8 -45 12 0 51 62 45 72 -10 16 -20 8 -37
-27z"/>
<path d="M715 843 c-16 -38 -9 -53 25 -53 13 0 13 2 1 9 -12 8 -13 14 -3 36
15 32 15 45 2 45 -5 0 -17 -17 -25 -37z"/>
<path d="M2169 855 c-1 -3 -3 -9 -4 -15 -1 -5 -3 -13 -4 -17 -1 -5 -5 -2 -9 4
-6 10 -21 8 -65 -10 -56 -22 -73 -36 -41 -33 10 0 21 -11 28 -30 6 -17 16 -29
23 -27 9 3 9 12 2 29 -12 32 -12 57 0 50 5 -4 11 -2 13 4 6 18 48 -2 54 -26 4
-14 11 -21 20 -17 8 3 11 10 7 16 -3 5 -6 25 -5 44 1 18 -3 33 -8 33 -6 0 -11
-2 -11 -5z"/>
<path d="M800 827 c-17 -13 -26 -67 -12 -67 5 0 17 10 26 23 l16 22 -3 -29
c-1 -16 4 -31 11 -33 7 -3 12 4 12 16 0 12 6 21 15 21 17 0 10 29 -13 48 -20
15 -33 15 -52 -1z"/>
<path d="M990 745 c-6 -19 -9 -39 -5 -45 7 -12 26 -14 24 -2 -3 20 2 32 15 32
24 0 30 22 11 37 -27 19 -32 17 -45 -22z"/>
<path d="M1980 771 c0 -4 -11 -6 -24 -4 -23 5 -24 4 -13 -41 11 -49 34 -58 29
-12 -3 30 14 35 23 6 3 -11 12 -20 19 -20 10 0 11 8 3 40 -6 22 -17 40 -24 40
-7 0 -13 -4 -13 -9z"/>
<path d="M1864 753 c-21 -4 -42 -53 -23 -53 5 0 9 -9 9 -21 0 -16 4 -19 23
-14 12 4 27 12 32 17 6 6 4 7 -6 3 -22 -8 -34 12 -19 29 8 11 8 15 -2 19 -9 4
-7 6 4 6 9 1 20 6 23 11 6 10 -2 11 -41 3z"/>
<path d="M1057 738 c-2 -7 -4 -26 -3 -43 1 -24 6 -30 26 -32 14 -1 19 0 13 3
-16 7 -17 44 -2 44 5 0 7 5 4 10 -4 6 6 10 22 11 l28 1 -25 8 c-38 12 -57 11
-63 -2z"/>
<path d="M880 729 c0 -5 5 -7 10 -4 6 3 10 8 10 11 0 2 -4 4 -10 4 -5 0 -10
-5 -10 -11z"/>
<path d="M1797 710 c5 -26 3 -30 -16 -30 -16 0 -21 6 -21 25 0 16 -6 25 -16
25 -11 0 -14 -5 -10 -16 3 -9 6 -29 6 -45 0 -31 26 -41 36 -14 5 11 10 12 24
2 11 -6 22 -9 25 -5 11 11 -7 88 -21 88 -10 0 -12 -9 -7 -30z"/>
<path d="M1146 708 c-9 -34 -7 -58 4 -58 5 0 12 11 16 25 8 31 27 21 21 -11
-3 -16 0 -24 9 -24 17 0 30 68 15 83 -8 8 -11 7 -11 -3 0 -11 -3 -11 -12 -2
-18 18 -35 14 -42 -10z"/>
<path d="M1662 723 c-23 -2 -40 -8 -37 -13 3 -5 12 -7 19 -4 10 4 16 -7 21
-35 8 -47 25 -46 25 1 0 18 7 36 18 44 9 7 13 13 7 12 -5 -1 -29 -3 -53 -5z"/>
<path d="M1246 712 c-10 -9 -7 -72 3 -72 5 0 12 11 15 25 8 32 30 22 23 -11
-3 -16 0 -24 9 -24 8 0 14 6 14 14 0 7 3 27 6 44 6 29 5 30 -29 30 -20 0 -38
-3 -41 -6z"/>
</g>
</svg>
